<svg xmlns="http://www.w3.org/2000/svg" version="1.1" xmlns:xlink="http://www.w3.org/1999/xlink" viewBox="0 0 200 200"><rect width="200" height="200" fill="url('#gradient')"></rect><defs><linearGradient id="gradient" gradientTransform="rotate(360 0.5 0.5)"><stop offset="0%" stop-color="#aad86a"></stop><stop offset="100%" stop-color="#99b8a5"></stop></linearGradient></defs><g><g fill="#2c2c35" transform="matrix(1.2479442882014196,0,0,1.2479442882014196,8.220015223409106,108.8710190541712)" stroke="#9e837a" stroke-width="1.6"><path d="M8.41-3.78L8.41-3.78Q8.41-4.53 7.88-4.95Q7.34-5.37 6.01-5.82Q4.67-6.27 3.82-6.69L3.82-6.69Q1.05-8.05 1.05-10.42L1.05-10.42Q1.05-11.60 1.74-12.50Q2.43-13.41 3.69-13.91Q4.95-14.41 6.52-14.41L6.52-14.41Q8.06-14.41 9.27-13.87Q10.49-13.32 11.16-12.31Q11.84-11.30 11.84-10L11.84-10L8.42-10Q8.42-10.87 7.89-11.35Q7.35-11.83 6.45-11.83L6.45-11.83Q5.53-11.83 5.00-11.42Q4.46-11.02 4.46-10.39L4.46-10.39Q4.46-9.84 5.05-9.40Q5.63-8.96 7.11-8.48Q8.58-8.01 9.53-7.46L9.53-7.46Q11.84-6.13 11.84-3.80L11.84-3.80Q11.84-1.93 10.43-0.87Q9.02 0.20 6.57 0.20L6.57 0.20Q4.84 0.20 3.44-0.42Q2.04-1.04 1.33-2.12Q0.63-3.20 0.63-4.61L0.63-4.61L4.06-4.61Q4.06-3.47 4.65-2.92Q5.24-2.38 6.57-2.38L6.57-2.38Q7.42-2.38 7.92-2.75Q8.41-3.12 8.41-3.78ZM21.32-14.22L24.75-14.22L24.75-4.91Q24.75-3.33 24.07-2.17Q23.40-1.02 22.14-0.41Q20.88 0.20 19.16 0.20L19.16 0.20Q16.56 0.20 15.07-1.15Q13.57-2.50 13.54-4.84L13.54-4.84L13.54-14.22L16.99-14.22L16.99-4.78Q17.05-2.44 19.16-2.44L19.16-2.44Q20.22-2.44 20.77-3.03Q21.32-3.61 21.32-4.93L21.32-4.93L21.32-14.22ZM31.56 0L26.88 0L26.88-14.22L31.46-14.22Q33.35-14.22 34.85-13.36Q36.36-12.51 37.20-10.95Q38.05-9.39 38.06-7.46L38.06-7.46L38.06-6.81Q38.06-4.85 37.23-3.31Q36.41-1.76 34.91-0.88Q33.41-0.01 31.56 0L31.56 0ZM31.46-11.57L30.31-11.57L30.31-2.64L31.50-2.64Q32.98-2.64 33.77-3.69Q34.56-4.74 34.56-6.81L34.56-6.81L34.56-7.42Q34.56-9.48 33.77-10.53Q32.98-11.57 31.46-11.57L31.46-11.57ZM43.47-14.22L43.47 0L40.05 0L40.05-14.22L43.47-14.22ZM51.46-4.82L49.28-4.82L49.28 0L45.85 0L45.85-14.22L51.52-14.22Q53.15-14.22 54.41-13.62Q55.66-13.02 56.35-11.91Q57.04-10.80 57.04-9.39L57.04-9.39Q57.04-7.31 55.55-6.07Q54.06-4.82 51.46-4.82L51.46-4.82ZM49.28-11.57L49.28-7.47L51.52-7.47Q52.52-7.47 53.04-7.97Q53.56-8.47 53.56-9.38L53.56-9.38Q53.56-10.37 53.03-10.97Q52.49-11.56 51.56-11.57L51.56-11.57L49.28-11.57ZM71.71 0L68.68-5.29L67.28-3.75L67.28 0L63.85 0L63.85-14.22L67.28-14.22L67.28-7.95L68.47-9.76L71.53-14.22L75.77-14.22L70.97-7.93L75.77 0L71.71 0ZM88.38-7.47L88.38-6.82Q88.38-4.74 87.61-3.13Q86.84-1.53 85.42-0.67Q83.99 0.20 82.18 0.20Q80.36 0.20 78.96-0.64Q77.55-1.47 76.76-3.03Q75.98-4.58 75.94-6.59L75.94-6.59L75.94-7.39Q75.94-9.48 76.70-11.08Q77.47-12.68 78.90-13.54Q80.33-14.41 82.16-14.41L82.16-14.41Q83.96-14.41 85.38-13.55Q86.80-12.70 87.58-11.11Q88.37-9.52 88.38-7.47L88.38-7.47ZM84.89-6.76L84.89-7.41Q84.89-9.53 84.18-10.63Q83.48-11.73 82.16-11.73L82.16-11.73Q79.58-11.73 79.43-7.86L79.43-7.86L79.42-6.82Q79.42-4.73 80.12-3.60Q80.81-2.48 82.18-2.48L82.18-2.48Q83.48-2.48 84.18-3.58Q84.88-4.69 84.89-6.76L84.89-6.76ZM93.80-14.22L93.80 0L90.38 0L90.38-14.22L93.80-14.22ZM103.97 0L101.46-5.02L99.61-5.02L99.61 0L96.18 0L96.18-14.22L101.78-14.22Q104.31-14.22 105.73-13.10Q107.16-11.97 107.16-9.92L107.16-9.92Q107.16-8.44 106.56-7.46Q105.96-6.48 104.68-5.88L104.68-5.88L107.65-0.15L107.65 0L103.97 0ZM99.61-11.57L99.61-7.67L101.78-7.67Q102.75-7.67 103.25-8.18Q103.74-8.69 103.74-9.61Q103.74-10.53 103.24-11.05Q102.74-11.57 101.78-11.57L101.78-11.57L99.61-11.57ZM118.13 0L117.30-2.66L112.61-2.66L111.79 0L108.13 0L113.34-14.22L116.56-14.22L121.82 0L118.13 0ZM114.95-10.23L113.43-5.30L116.48-5.30L114.95-10.23ZM126.28-14.22L126.28-2.64L132.25-2.64L132.25 0L122.85 0L122.85-14.22L126.28-14.22ZM142.78 0L141.95-2.66L137.26-2.66L136.44 0L132.77 0L137.99-14.22L141.21-14.22L146.46 0L142.78 0ZM139.60-10.23L138.08-5.30L141.13-5.30L139.60-10.23Z"></path></g></g></svg>