<svg width="437" height="207" viewBox="0 0 437 207" fill="none" xmlns="http://www.w3.org/2000/svg">
<path d="M434.5 103.5C434.5 159.247 388.643 204.5 332 204.5C275.357 204.5 229.5 159.247 229.5 103.5C229.5 47.753 275.357 2.5 332 2.5C388.643 2.5 434.5 47.753 434.5 103.5Z" stroke="black" stroke-width="5"/>
<path d="M302.593 72.458H296.184L295.061 75.0703C294.784 75.7132 294.646 76.1934 294.646 76.5107C294.646 76.763 294.764 76.9868 295 77.1821C295.244 77.3693 295.765 77.4914 296.562 77.5483V78H291.35V77.5483C292.042 77.4263 292.489 77.2676 292.693 77.0723C293.108 76.6816 293.568 75.8882 294.072 74.6919L299.895 61.0688H300.322L306.084 74.8384C306.548 75.9451 306.967 76.6654 307.341 76.999C307.724 77.3245 308.253 77.5076 308.928 77.5483V78H302.397V77.5483C303.057 77.5158 303.5 77.4059 303.728 77.2188C303.964 77.0316 304.082 76.8037 304.082 76.5352C304.082 76.1771 303.919 75.6115 303.594 74.8384L302.593 72.458ZM302.251 71.5547L299.443 64.8652L296.562 71.5547H302.251ZM313.848 60.6416V75.4731C313.848 76.173 313.896 76.6369 313.994 76.8647C314.1 77.0926 314.259 77.2676 314.47 77.3896C314.682 77.5036 315.076 77.5605 315.654 77.5605V78H310.173V77.5605C310.686 77.5605 311.036 77.5076 311.223 77.4019C311.41 77.2961 311.557 77.1211 311.663 76.877C311.768 76.6328 311.821 76.1649 311.821 75.4731V65.3169C311.821 64.0555 311.793 63.2824 311.736 62.9976C311.679 62.7046 311.585 62.5052 311.455 62.3994C311.333 62.2936 311.174 62.2407 310.979 62.2407C310.767 62.2407 310.499 62.3058 310.173 62.436L309.966 62.0088L313.298 60.6416H313.848ZM326.763 66.8184V73.5933C326.763 74.8872 326.791 75.6807 326.848 75.9736C326.913 76.2585 327.011 76.4578 327.141 76.5718C327.279 76.6857 327.438 76.7427 327.617 76.7427C327.869 76.7427 328.154 76.6735 328.472 76.5352L328.643 76.9624L325.298 78.3418H324.749V75.9736C323.788 77.0153 323.056 77.6704 322.551 77.939C322.047 78.2075 321.514 78.3418 320.952 78.3418C320.326 78.3418 319.78 78.1628 319.316 77.8047C318.861 77.4385 318.543 76.9705 318.364 76.4009C318.185 75.8312 318.096 75.0256 318.096 73.9839V68.9912C318.096 68.4622 318.039 68.096 317.925 67.8926C317.811 67.6891 317.64 67.5345 317.412 67.4287C317.192 67.3148 316.79 67.2619 316.204 67.27V66.8184H320.122V74.3013C320.122 75.3429 320.301 76.0265 320.659 76.3521C321.025 76.6776 321.465 76.8403 321.978 76.8403C322.327 76.8403 322.722 76.7305 323.162 76.5107C323.609 76.291 324.138 75.8719 324.749 75.2534V68.918C324.749 68.2832 324.631 67.856 324.395 67.6362C324.167 67.4084 323.687 67.2863 322.954 67.27V66.8184H326.763ZM332.781 68.8691C333.595 68.0553 334.075 67.5874 334.221 67.4653C334.587 67.1561 334.982 66.916 335.405 66.7451C335.828 66.5742 336.248 66.4888 336.663 66.4888C337.362 66.4888 337.965 66.6922 338.469 67.0991C338.974 67.506 339.312 68.096 339.482 68.8691C340.321 67.8926 341.029 67.2537 341.606 66.9526C342.184 66.6434 342.778 66.4888 343.389 66.4888C343.983 66.4888 344.508 66.6434 344.963 66.9526C345.427 67.2537 345.793 67.7502 346.062 68.4419C346.241 68.9139 346.331 69.6545 346.331 70.6636V75.4731C346.331 76.173 346.383 76.6532 346.489 76.9136C346.571 77.0926 346.721 77.2472 346.941 77.3774C347.161 77.4995 347.519 77.5605 348.015 77.5605V78H342.498V77.5605H342.729C343.21 77.5605 343.584 77.467 343.853 77.2798C344.04 77.1496 344.174 76.9421 344.255 76.6572C344.288 76.5189 344.304 76.1242 344.304 75.4731V70.6636C344.304 69.7521 344.194 69.1092 343.975 68.7349C343.657 68.214 343.149 67.9536 342.449 67.9536C342.017 67.9536 341.582 68.0635 341.143 68.2832C340.711 68.4948 340.186 68.8936 339.568 69.4795L339.543 69.6138L339.568 70.1387V75.4731C339.568 76.2381 339.609 76.7142 339.69 76.9014C339.779 77.0885 339.942 77.2472 340.178 77.3774C340.414 77.4995 340.817 77.5605 341.387 77.5605V78H335.735V77.5605C336.353 77.5605 336.777 77.4873 337.004 77.3408C337.24 77.1943 337.403 76.9746 337.493 76.6816C337.533 76.5433 337.554 76.1405 337.554 75.4731V70.6636C337.554 69.7521 337.419 69.097 337.151 68.6982C336.793 68.1774 336.292 67.917 335.649 67.917C335.21 67.917 334.775 68.035 334.343 68.271C333.668 68.6291 333.147 69.0319 332.781 69.4795V75.4731C332.781 76.2056 332.83 76.6816 332.927 76.9014C333.033 77.1211 333.184 77.2879 333.379 77.4019C333.582 77.5076 333.989 77.5605 334.6 77.5605V78H329.07V77.5605C329.583 77.5605 329.941 77.5076 330.144 77.4019C330.347 77.2879 330.502 77.113 330.608 76.877C330.714 76.6328 330.767 76.1649 330.767 75.4731V71.2007C330.767 69.9718 330.73 69.1784 330.657 68.8203C330.6 68.5518 330.51 68.3687 330.388 68.271C330.266 68.1652 330.099 68.1123 329.888 68.1123C329.66 68.1123 329.387 68.1733 329.07 68.2954L328.887 67.856L332.256 66.4888H332.781V68.8691ZM352.178 68.8569C353.488 67.2782 354.737 66.4888 355.925 66.4888C356.536 66.4888 357.061 66.6434 357.5 66.9526C357.939 67.2537 358.289 67.7542 358.55 68.4541C358.729 68.9424 358.818 69.6911 358.818 70.7002V75.4731C358.818 76.1812 358.875 76.6613 358.989 76.9136C359.079 77.117 359.221 77.2757 359.417 77.3896C359.62 77.5036 359.99 77.5605 360.527 77.5605V78H354.998V77.5605H355.229C355.75 77.5605 356.112 77.4832 356.316 77.3286C356.528 77.1659 356.674 76.9299 356.755 76.6206C356.788 76.4985 356.804 76.116 356.804 75.4731V70.8955C356.804 69.8783 356.67 69.1418 356.401 68.686C356.141 68.2222 355.697 67.9902 355.071 67.9902C354.102 67.9902 353.138 68.5192 352.178 69.5771V75.4731C352.178 76.23 352.222 76.6979 352.312 76.877C352.426 77.113 352.581 77.2879 352.776 77.4019C352.979 77.5076 353.386 77.5605 353.997 77.5605V78H348.467V77.5605H348.711C349.281 77.5605 349.663 77.4181 349.858 77.1333C350.062 76.8403 350.164 76.2869 350.164 75.4731V71.3228C350.164 69.98 350.131 69.1621 350.066 68.8691C350.009 68.5762 349.915 68.3768 349.785 68.271C349.663 68.1652 349.496 68.1123 349.285 68.1123C349.057 68.1123 348.784 68.1733 348.467 68.2954L348.284 67.856L351.653 66.4888H352.178V68.8569ZM364.263 60.6416C364.604 60.6416 364.893 60.7637 365.129 61.0078C365.374 61.2438 365.496 61.5327 365.496 61.8745C365.496 62.2163 365.374 62.5093 365.129 62.7534C364.893 62.9976 364.604 63.1196 364.263 63.1196C363.921 63.1196 363.628 62.9976 363.384 62.7534C363.14 62.5093 363.018 62.2163 363.018 61.8745C363.018 61.5327 363.136 61.2438 363.372 61.0078C363.616 60.7637 363.913 60.6416 364.263 60.6416ZM365.276 66.4888V75.4731C365.276 76.173 365.325 76.641 365.422 76.877C365.528 77.1048 365.679 77.2757 365.874 77.3896C366.077 77.5036 366.444 77.5605 366.973 77.5605V78H361.541V77.5605C362.086 77.5605 362.452 77.5076 362.639 77.4019C362.826 77.2961 362.973 77.1211 363.079 76.877C363.193 76.6328 363.25 76.1649 363.25 75.4731V71.1641C363.25 69.9515 363.213 69.1662 363.14 68.8081C363.083 68.5477 362.993 68.3687 362.871 68.271C362.749 68.1652 362.582 68.1123 362.371 68.1123C362.143 68.1123 361.866 68.1733 361.541 68.2954L361.37 67.856L364.739 66.4888H365.276ZM281.169 106.548V107H274.077V106.548H274.663C275.347 106.548 275.843 106.349 276.152 105.95C276.348 105.69 276.445 105.063 276.445 104.07V93.377C276.445 92.5387 276.392 91.9854 276.287 91.7168C276.205 91.5133 276.038 91.3384 275.786 91.1919C275.428 90.9966 275.054 90.8989 274.663 90.8989H274.077V90.4473H281.169V90.8989H280.571C279.896 90.8989 279.403 91.0983 279.094 91.4971C278.891 91.7575 278.789 92.3841 278.789 93.377V104.07C278.789 104.909 278.842 105.462 278.948 105.73C279.029 105.934 279.2 106.109 279.46 106.255C279.81 106.451 280.181 106.548 280.571 106.548H281.169ZM285.82 97.8569C287.131 96.2782 288.38 95.4888 289.568 95.4888C290.178 95.4888 290.703 95.6434 291.143 95.9526C291.582 96.2537 291.932 96.7542 292.192 97.4541C292.371 97.9424 292.461 98.6911 292.461 99.7002V104.473C292.461 105.181 292.518 105.661 292.632 105.914C292.721 106.117 292.864 106.276 293.059 106.39C293.263 106.504 293.633 106.561 294.17 106.561V107H288.64V106.561H288.872C289.393 106.561 289.755 106.483 289.958 106.329C290.17 106.166 290.317 105.93 290.398 105.621C290.431 105.499 290.447 105.116 290.447 104.473V99.8955C290.447 98.8783 290.312 98.1418 290.044 97.686C289.784 97.2222 289.34 96.9902 288.713 96.9902C287.745 96.9902 286.781 97.5192 285.82 98.5771V104.473C285.82 105.23 285.865 105.698 285.955 105.877C286.069 106.113 286.223 106.288 286.418 106.402C286.622 106.508 287.029 106.561 287.639 106.561V107H282.109V106.561H282.354C282.923 106.561 283.306 106.418 283.501 106.133C283.704 105.84 283.806 105.287 283.806 104.473V100.323C283.806 98.98 283.774 98.1621 283.708 97.8691C283.652 97.5762 283.558 97.3768 283.428 97.271C283.306 97.1652 283.139 97.1123 282.927 97.1123C282.699 97.1123 282.427 97.1733 282.109 97.2954L281.926 96.856L285.295 95.4888H285.82V97.8569ZM298.308 92.144V95.8184H300.92V96.6729H298.308V103.924C298.308 104.648 298.41 105.136 298.613 105.389C298.825 105.641 299.093 105.767 299.419 105.767C299.688 105.767 299.948 105.686 300.2 105.523C300.452 105.352 300.648 105.104 300.786 104.778H301.262C300.977 105.576 300.575 106.178 300.054 106.585C299.533 106.984 298.996 107.183 298.442 107.183C298.068 107.183 297.702 107.081 297.344 106.878C296.986 106.666 296.721 106.369 296.55 105.987C296.379 105.596 296.294 104.998 296.294 104.192V96.6729H294.524V96.27C294.972 96.091 295.427 95.7899 295.891 95.3667C296.363 94.9354 296.782 94.4268 297.148 93.8408C297.336 93.5316 297.596 92.966 297.93 92.144H298.308ZM303.899 100.03C303.891 101.69 304.294 102.992 305.107 103.936C305.921 104.88 306.877 105.352 307.976 105.352C308.708 105.352 309.343 105.153 309.88 104.754C310.426 104.347 310.881 103.655 311.248 102.679L311.626 102.923C311.455 104.038 310.959 105.055 310.137 105.975C309.315 106.886 308.285 107.342 307.048 107.342C305.706 107.342 304.554 106.821 303.594 105.779C302.642 104.729 302.166 103.322 302.166 101.556C302.166 99.6432 302.654 98.154 303.63 97.0879C304.615 96.0137 305.848 95.4766 307.329 95.4766C308.582 95.4766 309.612 95.8916 310.417 96.7217C311.223 97.5436 311.626 98.6463 311.626 100.03H303.899ZM303.899 99.3218H309.075C309.034 98.6056 308.949 98.1011 308.818 97.8081C308.615 97.3524 308.31 96.9943 307.903 96.7339C307.504 96.4735 307.085 96.3433 306.646 96.3433C305.97 96.3433 305.364 96.6077 304.827 97.1367C304.298 97.6576 303.988 98.3859 303.899 99.3218ZM316.973 89.6416V104.473C316.973 105.173 317.021 105.637 317.119 105.865C317.225 106.093 317.384 106.268 317.595 106.39C317.807 106.504 318.201 106.561 318.779 106.561V107H313.298V106.561C313.811 106.561 314.161 106.508 314.348 106.402C314.535 106.296 314.682 106.121 314.788 105.877C314.893 105.633 314.946 105.165 314.946 104.473V94.3169C314.946 93.0555 314.918 92.2824 314.861 91.9976C314.804 91.7046 314.71 91.5052 314.58 91.3994C314.458 91.2936 314.299 91.2407 314.104 91.2407C313.892 91.2407 313.624 91.3058 313.298 91.436L313.091 91.0088L316.423 89.6416H316.973ZM323.931 89.6416V104.473C323.931 105.173 323.979 105.637 324.077 105.865C324.183 106.093 324.342 106.268 324.553 106.39C324.765 106.504 325.16 106.561 325.737 106.561V107H320.256V106.561C320.769 106.561 321.119 106.508 321.306 106.402C321.493 106.296 321.64 106.121 321.746 105.877C321.851 105.633 321.904 105.165 321.904 104.473V94.3169C321.904 93.0555 321.876 92.2824 321.819 91.9976C321.762 91.7046 321.668 91.5052 321.538 91.3994C321.416 91.2936 321.257 91.2407 321.062 91.2407C320.85 91.2407 320.582 91.3058 320.256 91.436L320.049 91.0088L323.381 89.6416H323.931ZM329.888 89.6416C330.229 89.6416 330.518 89.7637 330.754 90.0078C330.999 90.2438 331.121 90.5327 331.121 90.8745C331.121 91.2163 330.999 91.5093 330.754 91.7534C330.518 91.9976 330.229 92.1196 329.888 92.1196C329.546 92.1196 329.253 91.9976 329.009 91.7534C328.765 91.5093 328.643 91.2163 328.643 90.8745C328.643 90.5327 328.761 90.2438 328.997 90.0078C329.241 89.7637 329.538 89.6416 329.888 89.6416ZM330.901 95.4888V104.473C330.901 105.173 330.95 105.641 331.047 105.877C331.153 106.105 331.304 106.276 331.499 106.39C331.702 106.504 332.069 106.561 332.598 106.561V107H327.166V106.561C327.711 106.561 328.077 106.508 328.264 106.402C328.451 106.296 328.598 106.121 328.704 105.877C328.818 105.633 328.875 105.165 328.875 104.473V100.164C328.875 98.9515 328.838 98.1662 328.765 97.8081C328.708 97.5477 328.618 97.3687 328.496 97.271C328.374 97.1652 328.207 97.1123 327.996 97.1123C327.768 97.1123 327.491 97.1733 327.166 97.2954L326.995 96.856L330.364 95.4888H330.901ZM336.992 102.923C336.309 102.589 335.784 102.125 335.417 101.531C335.051 100.929 334.868 100.266 334.868 99.5415C334.868 98.4347 335.283 97.4826 336.113 96.6851C336.951 95.8875 338.022 95.4888 339.324 95.4888C340.39 95.4888 341.313 95.7492 342.095 96.27H344.463C344.813 96.27 345.016 96.2822 345.073 96.3066C345.13 96.3229 345.171 96.3555 345.195 96.4043C345.244 96.4775 345.269 96.6077 345.269 96.7949C345.269 97.0065 345.248 97.153 345.208 97.2344C345.183 97.2751 345.138 97.3076 345.073 97.332C345.016 97.3564 344.813 97.3687 344.463 97.3687H343.01C343.466 97.9546 343.694 98.7033 343.694 99.6147C343.694 100.656 343.295 101.548 342.498 102.288C341.7 103.029 340.63 103.399 339.287 103.399C338.734 103.399 338.168 103.318 337.59 103.155C337.232 103.464 336.988 103.737 336.858 103.973C336.736 104.201 336.675 104.396 336.675 104.559C336.675 104.697 336.74 104.831 336.87 104.961C337.008 105.092 337.273 105.185 337.664 105.242C337.891 105.275 338.461 105.303 339.373 105.328C341.049 105.368 342.135 105.425 342.632 105.499C343.389 105.604 343.991 105.885 344.438 106.341C344.894 106.797 345.122 107.358 345.122 108.025C345.122 108.945 344.691 109.808 343.828 110.613C342.559 111.801 340.903 112.396 338.86 112.396C337.289 112.396 335.963 112.042 334.88 111.333C334.27 110.927 333.965 110.503 333.965 110.064C333.965 109.869 334.01 109.673 334.099 109.478C334.237 109.177 334.522 108.758 334.954 108.221C335.011 108.147 335.426 107.708 336.199 106.902C335.776 106.65 335.474 106.426 335.295 106.231C335.125 106.028 335.039 105.8 335.039 105.547C335.039 105.263 335.153 104.929 335.381 104.546C335.617 104.164 336.154 103.623 336.992 102.923ZM339.116 96.0747C338.514 96.0747 338.009 96.3148 337.603 96.7949C337.196 97.2751 336.992 98.0116 336.992 99.0044C336.992 100.29 337.269 101.287 337.822 101.995C338.245 102.532 338.783 102.801 339.434 102.801C340.052 102.801 340.561 102.569 340.959 102.105C341.358 101.641 341.558 100.913 341.558 99.9199C341.558 98.626 341.277 97.6128 340.715 96.8804C340.3 96.3433 339.767 96.0747 339.116 96.0747ZM336.87 107C336.488 107.415 336.199 107.802 336.003 108.16C335.808 108.518 335.71 108.847 335.71 109.148C335.71 109.539 335.946 109.881 336.418 110.174C337.232 110.678 338.408 110.931 339.946 110.931C341.411 110.931 342.489 110.67 343.181 110.149C343.881 109.637 344.231 109.087 344.231 108.501C344.231 108.078 344.023 107.777 343.608 107.598C343.185 107.419 342.347 107.313 341.094 107.281C339.263 107.232 337.855 107.138 336.87 107ZM348.381 100.03C348.373 101.69 348.776 102.992 349.59 103.936C350.404 104.88 351.36 105.352 352.458 105.352C353.191 105.352 353.826 105.153 354.363 104.754C354.908 104.347 355.364 103.655 355.73 102.679L356.108 102.923C355.938 104.038 355.441 105.055 354.619 105.975C353.797 106.886 352.768 107.342 351.531 107.342C350.188 107.342 349.036 106.821 348.076 105.779C347.124 104.729 346.648 103.322 346.648 101.556C346.648 99.6432 347.136 98.154 348.113 97.0879C349.097 96.0137 350.33 95.4766 351.812 95.4766C353.065 95.4766 354.094 95.8916 354.9 96.7217C355.706 97.5436 356.108 98.6463 356.108 100.03H348.381ZM348.381 99.3218H353.557C353.516 98.6056 353.431 98.1011 353.301 97.8081C353.097 97.3524 352.792 96.9943 352.385 96.7339C351.986 96.4735 351.567 96.3433 351.128 96.3433C350.452 96.3433 349.846 96.6077 349.309 97.1367C348.78 97.6576 348.471 98.3859 348.381 99.3218ZM360.869 97.8569C362.179 96.2782 363.429 95.4888 364.617 95.4888C365.227 95.4888 365.752 95.6434 366.191 95.9526C366.631 96.2537 366.981 96.7542 367.241 97.4541C367.42 97.9424 367.51 98.6911 367.51 99.7002V104.473C367.51 105.181 367.567 105.661 367.681 105.914C367.77 106.117 367.913 106.276 368.108 106.39C368.311 106.504 368.682 106.561 369.219 106.561V107H363.689V106.561H363.921C364.442 106.561 364.804 106.483 365.007 106.329C365.219 106.166 365.365 105.93 365.447 105.621C365.479 105.499 365.496 105.116 365.496 104.473V99.8955C365.496 98.8783 365.361 98.1418 365.093 97.686C364.832 97.2222 364.389 96.9902 363.762 96.9902C362.794 96.9902 361.829 97.5192 360.869 98.5771V104.473C360.869 105.23 360.914 105.698 361.003 105.877C361.117 106.113 361.272 106.288 361.467 106.402C361.671 106.508 362.078 106.561 362.688 106.561V107H357.158V106.561H357.402C357.972 106.561 358.354 106.418 358.55 106.133C358.753 105.84 358.855 105.287 358.855 104.473V100.323C358.855 98.98 358.822 98.1621 358.757 97.8691C358.7 97.5762 358.607 97.3768 358.477 97.271C358.354 97.1652 358.188 97.1123 357.976 97.1123C357.748 97.1123 357.476 97.1733 357.158 97.2954L356.975 96.856L360.344 95.4888H360.869V97.8569ZM379.607 102.752C379.306 104.225 378.716 105.36 377.837 106.158C376.958 106.947 375.986 107.342 374.919 107.342C373.65 107.342 372.543 106.809 371.599 105.743C370.655 104.677 370.183 103.236 370.183 101.421C370.183 99.6636 370.704 98.2354 371.746 97.1367C372.795 96.0381 374.053 95.4888 375.518 95.4888C376.616 95.4888 377.52 95.7817 378.228 96.3677C378.936 96.9455 379.29 97.5477 379.29 98.1743C379.29 98.4836 379.188 98.7358 378.984 98.9312C378.789 99.1183 378.512 99.2119 378.154 99.2119C377.674 99.2119 377.312 99.0573 377.068 98.748C376.93 98.5771 376.836 98.2516 376.787 97.7715C376.746 97.2913 376.584 96.9251 376.299 96.6729C376.014 96.4287 375.619 96.3066 375.115 96.3066C374.301 96.3066 373.646 96.6077 373.149 97.21C372.49 98.0075 372.161 99.0614 372.161 100.372C372.161 101.706 372.486 102.886 373.137 103.912C373.796 104.929 374.683 105.438 375.798 105.438C376.596 105.438 377.312 105.165 377.947 104.62C378.394 104.245 378.83 103.566 379.253 102.581L379.607 102.752ZM383.098 100.03C383.09 101.69 383.493 102.992 384.307 103.936C385.12 104.88 386.077 105.352 387.175 105.352C387.908 105.352 388.542 105.153 389.08 104.754C389.625 104.347 390.081 103.655 390.447 102.679L390.825 102.923C390.654 104.038 390.158 105.055 389.336 105.975C388.514 106.886 387.485 107.342 386.248 107.342C384.905 107.342 383.753 106.821 382.793 105.779C381.841 104.729 381.365 103.322 381.365 101.556C381.365 99.6432 381.853 98.154 382.83 97.0879C383.814 96.0137 385.047 95.4766 386.528 95.4766C387.782 95.4766 388.811 95.8916 389.617 96.7217C390.422 97.5436 390.825 98.6463 390.825 100.03H383.098ZM383.098 99.3218H388.274C388.233 98.6056 388.148 98.1011 388.018 97.8081C387.814 97.3524 387.509 96.9943 387.102 96.7339C386.703 96.4735 386.284 96.3433 385.845 96.3433C385.169 96.3433 384.563 96.6077 384.026 97.1367C383.497 97.6576 383.188 98.3859 383.098 99.3218ZM307.122 119.069V124.794H306.67C306.523 123.695 306.259 122.82 305.876 122.169C305.502 121.518 304.965 121.002 304.265 120.619C303.565 120.237 302.841 120.045 302.092 120.045C301.246 120.045 300.546 120.306 299.993 120.827C299.439 121.339 299.163 121.925 299.163 122.584C299.163 123.089 299.338 123.549 299.688 123.964C300.192 124.574 301.392 125.388 303.289 126.405C304.835 127.235 305.889 127.874 306.45 128.322C307.02 128.761 307.455 129.282 307.756 129.884C308.066 130.486 308.22 131.117 308.22 131.776C308.22 133.03 307.732 134.112 306.755 135.023C305.787 135.927 304.538 136.378 303.008 136.378C302.528 136.378 302.076 136.342 301.653 136.269C301.401 136.228 300.876 136.081 300.078 135.829C299.289 135.569 298.788 135.438 298.577 135.438C298.373 135.438 298.21 135.5 298.088 135.622C297.974 135.744 297.889 135.996 297.832 136.378H297.38V130.702H297.832C298.044 131.89 298.328 132.781 298.687 133.375C299.045 133.961 299.59 134.45 300.322 134.84C301.063 135.231 301.873 135.426 302.751 135.426C303.769 135.426 304.57 135.158 305.156 134.621C305.75 134.083 306.047 133.449 306.047 132.716C306.047 132.309 305.933 131.898 305.706 131.483C305.486 131.068 305.14 130.682 304.668 130.324C304.351 130.08 303.484 129.563 302.068 128.773C300.652 127.976 299.643 127.341 299.041 126.869C298.446 126.397 297.995 125.876 297.686 125.307C297.376 124.737 297.222 124.11 297.222 123.427C297.222 122.239 297.677 121.217 298.589 120.363C299.5 119.5 300.66 119.069 302.068 119.069C302.947 119.069 303.879 119.285 304.863 119.716C305.319 119.919 305.64 120.021 305.828 120.021C306.039 120.021 306.21 119.96 306.34 119.838C306.479 119.708 306.589 119.451 306.67 119.069H307.122ZM309.722 124.818H314.934V125.27H314.678C314.312 125.27 314.035 125.351 313.848 125.514C313.669 125.669 313.579 125.864 313.579 126.1C313.579 126.417 313.713 126.857 313.982 127.418L316.704 133.058L319.207 126.881C319.345 126.548 319.414 126.218 319.414 125.893C319.414 125.746 319.386 125.636 319.329 125.563C319.264 125.473 319.162 125.404 319.023 125.355C318.885 125.299 318.641 125.27 318.291 125.27V124.818H321.929V125.27C321.628 125.303 321.396 125.368 321.233 125.465C321.07 125.563 320.891 125.746 320.696 126.015C320.623 126.129 320.484 126.442 320.281 126.955L315.728 138.112C315.288 139.194 314.71 140.012 313.994 140.565C313.286 141.119 312.603 141.396 311.943 141.396C311.463 141.396 311.069 141.257 310.759 140.98C310.45 140.704 310.295 140.386 310.295 140.028C310.295 139.687 310.405 139.41 310.625 139.198C310.853 138.995 311.162 138.893 311.553 138.893C311.821 138.893 312.188 138.983 312.651 139.162C312.977 139.284 313.18 139.345 313.262 139.345C313.506 139.345 313.77 139.219 314.055 138.966C314.348 138.714 314.641 138.226 314.934 137.501L315.728 135.561L311.711 127.125C311.589 126.873 311.394 126.56 311.125 126.186C310.922 125.901 310.755 125.709 310.625 125.612C310.438 125.482 310.137 125.368 309.722 125.27V124.818ZM330.083 124.489V128.297H329.68C329.371 127.101 328.972 126.287 328.484 125.856C328.004 125.425 327.389 125.209 326.641 125.209C326.071 125.209 325.611 125.36 325.261 125.661C324.911 125.962 324.736 126.295 324.736 126.662C324.736 127.117 324.867 127.508 325.127 127.833C325.379 128.167 325.892 128.521 326.665 128.896L328.447 129.762C330.099 130.568 330.925 131.63 330.925 132.948C330.925 133.965 330.539 134.787 329.766 135.414C329.001 136.033 328.142 136.342 327.19 136.342C326.506 136.342 325.725 136.22 324.846 135.976C324.578 135.894 324.358 135.854 324.187 135.854C324 135.854 323.853 135.959 323.748 136.171H323.345V132.179H323.748C323.975 133.319 324.411 134.177 325.054 134.755C325.697 135.333 326.417 135.622 327.214 135.622C327.776 135.622 328.232 135.459 328.582 135.133C328.94 134.8 329.119 134.401 329.119 133.937C329.119 133.375 328.919 132.903 328.521 132.521C328.13 132.139 327.345 131.654 326.165 131.068C324.985 130.482 324.211 129.953 323.845 129.481C323.479 129.018 323.296 128.432 323.296 127.724C323.296 126.804 323.609 126.035 324.236 125.417C324.871 124.798 325.688 124.489 326.689 124.489C327.129 124.489 327.662 124.582 328.289 124.77C328.704 124.892 328.98 124.953 329.119 124.953C329.249 124.953 329.351 124.924 329.424 124.867C329.497 124.81 329.583 124.684 329.68 124.489H330.083ZM335.845 121.144V124.818H338.457V125.673H335.845V132.924C335.845 133.648 335.946 134.136 336.15 134.389C336.361 134.641 336.63 134.767 336.956 134.767C337.224 134.767 337.485 134.686 337.737 134.523C337.989 134.352 338.184 134.104 338.323 133.778H338.799C338.514 134.576 338.111 135.178 337.59 135.585C337.069 135.984 336.532 136.183 335.979 136.183C335.605 136.183 335.238 136.081 334.88 135.878C334.522 135.666 334.258 135.369 334.087 134.987C333.916 134.596 333.831 133.998 333.831 133.192V125.673H332.061V125.27C332.508 125.091 332.964 124.79 333.428 124.367C333.9 123.935 334.319 123.427 334.685 122.841C334.872 122.532 335.133 121.966 335.466 121.144H335.845ZM341.436 129.03C341.427 130.69 341.83 131.992 342.644 132.936C343.458 133.88 344.414 134.352 345.513 134.352C346.245 134.352 346.88 134.153 347.417 133.754C347.962 133.347 348.418 132.655 348.784 131.679L349.163 131.923C348.992 133.038 348.495 134.055 347.673 134.975C346.851 135.886 345.822 136.342 344.585 136.342C343.242 136.342 342.091 135.821 341.13 134.779C340.178 133.729 339.702 132.322 339.702 130.556C339.702 128.643 340.19 127.154 341.167 126.088C342.152 125.014 343.385 124.477 344.866 124.477C346.119 124.477 347.148 124.892 347.954 125.722C348.76 126.544 349.163 127.646 349.163 129.03H341.436ZM341.436 128.322H346.611C346.571 127.606 346.485 127.101 346.355 126.808C346.152 126.352 345.846 125.994 345.439 125.734C345.041 125.473 344.622 125.343 344.182 125.343C343.507 125.343 342.9 125.608 342.363 126.137C341.834 126.658 341.525 127.386 341.436 128.322ZM353.984 126.869C354.798 126.055 355.278 125.587 355.425 125.465C355.791 125.156 356.186 124.916 356.609 124.745C357.032 124.574 357.451 124.489 357.866 124.489C358.566 124.489 359.168 124.692 359.673 125.099C360.177 125.506 360.515 126.096 360.686 126.869C361.524 125.893 362.232 125.254 362.81 124.953C363.388 124.643 363.982 124.489 364.592 124.489C365.186 124.489 365.711 124.643 366.167 124.953C366.631 125.254 366.997 125.75 367.266 126.442C367.445 126.914 367.534 127.654 367.534 128.664V133.473C367.534 134.173 367.587 134.653 367.693 134.914C367.774 135.093 367.925 135.247 368.145 135.377C368.364 135.5 368.722 135.561 369.219 135.561V136H363.701V135.561H363.933C364.413 135.561 364.788 135.467 365.056 135.28C365.243 135.15 365.378 134.942 365.459 134.657C365.492 134.519 365.508 134.124 365.508 133.473V128.664C365.508 127.752 365.398 127.109 365.178 126.735C364.861 126.214 364.352 125.954 363.652 125.954C363.221 125.954 362.786 126.063 362.346 126.283C361.915 126.495 361.39 126.894 360.771 127.479L360.747 127.614L360.771 128.139V133.473C360.771 134.238 360.812 134.714 360.894 134.901C360.983 135.089 361.146 135.247 361.382 135.377C361.618 135.5 362.021 135.561 362.59 135.561V136H356.938V135.561C357.557 135.561 357.98 135.487 358.208 135.341C358.444 135.194 358.607 134.975 358.696 134.682C358.737 134.543 358.757 134.14 358.757 133.473V128.664C358.757 127.752 358.623 127.097 358.354 126.698C357.996 126.177 357.496 125.917 356.853 125.917C356.414 125.917 355.978 126.035 355.547 126.271C354.871 126.629 354.351 127.032 353.984 127.479V133.473C353.984 134.206 354.033 134.682 354.131 134.901C354.237 135.121 354.387 135.288 354.583 135.402C354.786 135.508 355.193 135.561 355.803 135.561V136H350.273V135.561C350.786 135.561 351.144 135.508 351.348 135.402C351.551 135.288 351.706 135.113 351.812 134.877C351.917 134.633 351.97 134.165 351.97 133.473V129.201C351.97 127.972 351.934 127.178 351.86 126.82C351.803 126.552 351.714 126.369 351.592 126.271C351.47 126.165 351.303 126.112 351.091 126.112C350.863 126.112 350.591 126.173 350.273 126.295L350.09 125.856L353.459 124.489H353.984V126.869Z" fill="black"/>
<rect x="2.5" y="66.5" width="109" height="78" stroke="black" stroke-width="5"/>
<path d="M30.7422 95.0688V100.794H30.2905C30.144 99.6953 29.8796 98.8205 29.4971 98.1694C29.1227 97.5184 28.5856 97.0016 27.8857 96.6191C27.1859 96.2367 26.4616 96.0454 25.7129 96.0454C24.8665 96.0454 24.1667 96.3058 23.6133 96.8267C23.0599 97.3394 22.7832 97.9253 22.7832 98.5845C22.7832 99.089 22.9582 99.5488 23.3081 99.9639C23.8127 100.574 25.013 101.388 26.9092 102.405C28.4554 103.235 29.5093 103.874 30.0708 104.322C30.6405 104.761 31.0758 105.282 31.377 105.884C31.6862 106.486 31.8408 107.117 31.8408 107.776C31.8408 109.03 31.3525 110.112 30.376 111.023C29.4076 111.927 28.1584 112.378 26.6284 112.378C26.1483 112.378 25.6966 112.342 25.2734 112.269C25.0212 112.228 24.4963 112.081 23.6987 111.829C22.9093 111.569 22.4089 111.438 22.1973 111.438C21.9938 111.438 21.8311 111.5 21.709 111.622C21.5951 111.744 21.5096 111.996 21.4526 112.378H21.001V106.702H21.4526C21.6642 107.89 21.9491 108.781 22.3071 109.375C22.6652 109.961 23.2104 110.45 23.9429 110.84C24.6834 111.231 25.4932 111.426 26.3721 111.426C27.3893 111.426 28.1909 111.158 28.7769 110.621C29.3709 110.083 29.668 109.449 29.668 108.716C29.668 108.309 29.554 107.898 29.3262 107.483C29.1064 107.068 28.7606 106.682 28.2886 106.324C27.9712 106.08 27.1045 105.563 25.6885 104.773C24.2725 103.976 23.2633 103.341 22.6611 102.869C22.0671 102.397 21.6154 101.876 21.3062 101.307C20.9969 100.737 20.8423 100.11 20.8423 99.4268C20.8423 98.2386 21.298 97.2173 22.2095 96.3628C23.1209 95.5002 24.2806 95.0688 25.6885 95.0688C26.5674 95.0688 27.4992 95.2845 28.4839 95.7158C28.9396 95.9193 29.2611 96.021 29.4482 96.021C29.6598 96.021 29.8307 95.96 29.9609 95.8379C30.0993 95.7077 30.2091 95.4513 30.2905 95.0688H30.7422ZM37.2241 97.144V100.818H39.8364V101.673H37.2241V108.924C37.2241 109.648 37.3258 110.136 37.5293 110.389C37.7409 110.641 38.0094 110.767 38.335 110.767C38.6035 110.767 38.8639 110.686 39.1162 110.523C39.3685 110.352 39.5638 110.104 39.7021 109.778H40.1782C39.8934 110.576 39.4906 111.178 38.9697 111.585C38.4489 111.984 37.9118 112.183 37.3584 112.183C36.984 112.183 36.6178 112.081 36.2598 111.878C35.9017 111.666 35.6372 111.369 35.4663 110.987C35.2954 110.596 35.21 109.998 35.21 109.192V101.673H33.4399V101.27C33.8875 101.091 34.3433 100.79 34.8071 100.367C35.2791 99.9354 35.6982 99.4268 36.0645 98.8408C36.2516 98.5316 36.512 97.966 36.8457 97.144H37.2241ZM50.7373 100.818V107.593C50.7373 108.887 50.7658 109.681 50.8228 109.974C50.8879 110.258 50.9855 110.458 51.1157 110.572C51.2541 110.686 51.4128 110.743 51.5918 110.743C51.8441 110.743 52.1289 110.674 52.4463 110.535L52.6172 110.962L49.2725 112.342H48.7231V109.974C47.7629 111.015 47.0304 111.67 46.5259 111.939C46.0213 112.208 45.4883 112.342 44.9268 112.342C44.3001 112.342 43.7549 112.163 43.291 111.805C42.8353 111.438 42.5179 110.971 42.3389 110.401C42.1598 109.831 42.0703 109.026 42.0703 107.984V102.991C42.0703 102.462 42.0133 102.096 41.8994 101.893C41.7855 101.689 41.6146 101.535 41.3867 101.429C41.167 101.315 40.7642 101.262 40.1782 101.27V100.818H44.0967V108.301C44.0967 109.343 44.2757 110.027 44.6338 110.352C45 110.678 45.4395 110.84 45.9521 110.84C46.3021 110.84 46.6968 110.73 47.1362 110.511C47.5838 110.291 48.1128 109.872 48.7231 109.253V102.918C48.7231 102.283 48.6051 101.856 48.3691 101.636C48.1413 101.408 47.6611 101.286 46.9287 101.27V100.818H50.7373ZM61.333 110.743C60.7878 111.312 60.2547 111.723 59.7339 111.976C59.2131 112.22 58.6515 112.342 58.0493 112.342C56.8286 112.342 55.7625 111.833 54.8511 110.816C53.9396 109.791 53.4839 108.476 53.4839 106.873C53.4839 105.27 53.9884 103.805 54.9976 102.479C56.0067 101.144 57.3047 100.477 58.8916 100.477C59.8763 100.477 60.6901 100.79 61.333 101.417V99.3535C61.333 98.0758 61.3005 97.2905 61.2354 96.9976C61.1784 96.7046 61.0848 96.5052 60.9546 96.3994C60.8244 96.2936 60.6616 96.2407 60.4663 96.2407C60.2547 96.2407 59.974 96.3058 59.624 96.436L59.4653 96.0088L62.7979 94.6416H63.3472V107.569C63.3472 108.879 63.3757 109.681 63.4326 109.974C63.4977 110.258 63.5954 110.458 63.7256 110.572C63.8639 110.686 64.0226 110.743 64.2017 110.743C64.4214 110.743 64.7144 110.674 65.0806 110.535L65.2148 110.962L61.8945 112.342H61.333V110.743ZM61.333 109.888V104.126C61.2842 103.573 61.1377 103.069 60.8936 102.613C60.6494 102.157 60.3239 101.815 59.917 101.587C59.5182 101.351 59.1276 101.233 58.7451 101.233C58.029 101.233 57.3901 101.555 56.8286 102.198C56.0881 103.044 55.7178 104.281 55.7178 105.909C55.7178 107.553 56.0758 108.814 56.792 109.693C57.5081 110.564 58.3057 110.999 59.1846 110.999C59.9251 110.999 60.6413 110.629 61.333 109.888ZM67.8149 105.03C67.8068 106.69 68.2096 107.992 69.0234 108.936C69.8372 109.88 70.7935 110.352 71.8921 110.352C72.6245 110.352 73.2593 110.153 73.7964 109.754C74.3416 109.347 74.7974 108.655 75.1636 107.679L75.542 107.923C75.3711 109.038 74.8747 110.055 74.0527 110.975C73.2308 111.886 72.2013 112.342 70.9644 112.342C69.6216 112.342 68.4701 111.821 67.5098 110.779C66.5576 109.729 66.0815 108.322 66.0815 106.556C66.0815 104.643 66.5698 103.154 67.5464 102.088C68.5311 101.014 69.764 100.477 71.2451 100.477C72.4984 100.477 73.5278 100.892 74.3335 101.722C75.1392 102.544 75.542 103.646 75.542 105.03H67.8149ZM67.8149 104.322H72.9907C72.95 103.606 72.8646 103.101 72.7344 102.808C72.5309 102.352 72.2257 101.994 71.8188 101.734C71.4201 101.473 71.001 101.343 70.5615 101.343C69.8861 101.343 69.2798 101.608 68.7427 102.137C68.2137 102.658 67.9045 103.386 67.8149 104.322ZM80.3027 102.857C81.613 101.278 82.8621 100.489 84.0503 100.489C84.6606 100.489 85.1855 100.643 85.625 100.953C86.0645 101.254 86.4144 101.754 86.6748 102.454C86.8538 102.942 86.9434 103.691 86.9434 104.7V109.473C86.9434 110.181 87.0003 110.661 87.1143 110.914C87.2038 111.117 87.3462 111.276 87.5415 111.39C87.745 111.504 88.1152 111.561 88.6523 111.561V112H83.1226V111.561H83.3545C83.8753 111.561 84.2375 111.483 84.4409 111.329C84.6525 111.166 84.799 110.93 84.8804 110.621C84.9129 110.499 84.9292 110.116 84.9292 109.473V104.896C84.9292 103.878 84.7949 103.142 84.5264 102.686C84.266 102.222 83.8224 101.99 83.1958 101.99C82.2274 101.99 81.263 102.519 80.3027 103.577V109.473C80.3027 110.23 80.3475 110.698 80.437 110.877C80.5509 111.113 80.7056 111.288 80.9009 111.402C81.1043 111.508 81.5112 111.561 82.1216 111.561V112H76.5918V111.561H76.8359C77.4056 111.561 77.7881 111.418 77.9834 111.133C78.1868 110.84 78.2886 110.287 78.2886 109.473V105.323C78.2886 103.98 78.256 103.162 78.1909 102.869C78.134 102.576 78.0404 102.377 77.9102 102.271C77.7881 102.165 77.6213 102.112 77.4097 102.112C77.1818 102.112 76.9092 102.173 76.5918 102.295L76.4087 101.856L79.7778 100.489H80.3027V102.857ZM92.7905 97.144V100.818H95.4028V101.673H92.7905V108.924C92.7905 109.648 92.8923 110.136 93.0957 110.389C93.3073 110.641 93.5758 110.767 93.9014 110.767C94.1699 110.767 94.4303 110.686 94.6826 110.523C94.9349 110.352 95.1302 110.104 95.2686 109.778H95.7446C95.4598 110.576 95.057 111.178 94.5361 111.585C94.0153 111.984 93.4782 112.183 92.9248 112.183C92.5505 112.183 92.1842 112.081 91.8262 111.878C91.4681 111.666 91.2036 111.369 91.0327 110.987C90.8618 110.596 90.7764 109.998 90.7764 109.192V101.673H89.0063V101.27C89.4539 101.091 89.9097 100.79 90.3735 100.367C90.8455 99.9354 91.2646 99.4268 91.6309 98.8408C91.818 98.5316 92.0785 97.966 92.4121 97.144H92.7905Z" fill="black"/>
<path d="M147.261 64.1831C148.091 65.6154 148.986 66.6693 149.946 67.3447C150.915 68.0202 152.013 68.4067 153.242 68.5044V68.895C152.119 68.8543 150.919 68.6265 149.641 68.2114C148.363 67.8045 147.151 67.2349 146.003 66.5024C144.864 65.7782 143.879 65.005 143.049 64.1831C141.877 63.7111 140.95 63.2106 140.266 62.6816C139.273 61.8923 138.5 60.9238 137.947 59.7764C137.402 58.6208 137.129 57.2576 137.129 55.687C137.129 53.2131 137.931 51.1582 139.534 49.5225C141.137 47.8867 143.078 47.0688 145.356 47.0688C147.521 47.0688 149.393 47.8908 150.972 49.5347C152.559 51.1704 153.352 53.2375 153.352 55.7358C153.352 57.7622 152.786 59.5404 151.655 61.0703C150.532 62.6003 149.067 63.6379 147.261 64.1831ZM145.21 48.0088C143.729 48.0088 142.537 48.5378 141.633 49.5957C140.494 50.9222 139.924 52.9526 139.924 55.687C139.924 58.3644 140.502 60.4274 141.658 61.876C142.553 62.9909 143.737 63.5483 145.21 63.5483C146.74 63.5483 147.973 62.9909 148.909 61.876C150.007 60.5576 150.557 58.6126 150.557 56.041C150.557 54.0635 150.256 52.3993 149.653 51.0483C149.189 50.0067 148.571 49.2417 147.798 48.7534C147.033 48.257 146.17 48.0088 145.21 48.0088ZM164.9 52.8184V59.5933C164.9 60.8872 164.928 61.6807 164.985 61.9736C165.05 62.2585 165.148 62.4578 165.278 62.5718C165.417 62.6857 165.575 62.7427 165.754 62.7427C166.007 62.7427 166.292 62.6735 166.609 62.5352L166.78 62.9624L163.435 64.3418H162.886V61.9736C161.925 63.0153 161.193 63.6704 160.688 63.939C160.184 64.2075 159.651 64.3418 159.089 64.3418C158.463 64.3418 157.917 64.1628 157.454 63.8047C156.998 63.4385 156.681 62.9705 156.501 62.4009C156.322 61.8312 156.233 61.0256 156.233 59.9839V54.9912C156.233 54.4622 156.176 54.096 156.062 53.8926C155.948 53.6891 155.777 53.5345 155.549 53.4287C155.33 53.3148 154.927 53.2619 154.341 53.27V52.8184H158.259V60.3013C158.259 61.3429 158.438 62.0265 158.796 62.3521C159.163 62.6776 159.602 62.8403 160.115 62.8403C160.465 62.8403 160.859 62.7305 161.299 62.5107C161.746 62.291 162.275 61.8719 162.886 61.2534V54.918C162.886 54.2832 162.768 53.856 162.532 53.6362C162.304 53.4084 161.824 53.2863 161.091 53.27V52.8184H164.9ZM169.478 57.0298C169.469 58.6899 169.872 59.992 170.686 60.936C171.5 61.88 172.456 62.3521 173.555 62.3521C174.287 62.3521 174.922 62.1527 175.459 61.7539C176.004 61.347 176.46 60.6553 176.826 59.6787L177.205 59.9229C177.034 61.0378 176.537 62.055 175.715 62.9746C174.893 63.8861 173.864 64.3418 172.627 64.3418C171.284 64.3418 170.133 63.821 169.172 62.7793C168.22 61.7295 167.744 60.3216 167.744 58.5557C167.744 56.6432 168.232 55.154 169.209 54.0879C170.194 53.0137 171.427 52.4766 172.908 52.4766C174.161 52.4766 175.19 52.8916 175.996 53.7217C176.802 54.5436 177.205 55.6463 177.205 57.0298H169.478ZM169.478 56.3218H174.653C174.613 55.6056 174.527 55.1011 174.397 54.8081C174.194 54.3524 173.888 53.9943 173.481 53.7339C173.083 53.4735 172.664 53.3433 172.224 53.3433C171.549 53.3433 170.942 53.6077 170.405 54.1367C169.876 54.6576 169.567 55.3859 169.478 56.3218ZM181.978 52.4888V55.0034C182.913 53.327 183.874 52.4888 184.858 52.4888C185.306 52.4888 185.676 52.6271 185.969 52.9038C186.262 53.1724 186.409 53.4857 186.409 53.8438C186.409 54.1611 186.303 54.4297 186.091 54.6494C185.88 54.8691 185.627 54.979 185.334 54.979C185.05 54.979 184.728 54.8407 184.37 54.564C184.02 54.2791 183.76 54.1367 183.589 54.1367C183.442 54.1367 183.284 54.2181 183.113 54.3809C182.747 54.7145 182.368 55.2638 181.978 56.0288V61.3877C181.978 62.0062 182.055 62.4741 182.209 62.7915C182.315 63.0112 182.502 63.1943 182.771 63.3408C183.04 63.4873 183.426 63.5605 183.931 63.5605V64H178.206V63.5605C178.775 63.5605 179.198 63.471 179.475 63.292C179.679 63.1618 179.821 62.9543 179.902 62.6694C179.943 62.5311 179.963 62.1364 179.963 61.4854V57.1519C179.963 55.8498 179.935 55.0767 179.878 54.8325C179.829 54.5802 179.731 54.3971 179.585 54.2832C179.447 54.1693 179.272 54.1123 179.06 54.1123C178.808 54.1123 178.523 54.1733 178.206 54.2954L178.083 53.856L181.465 52.4888H181.978ZM186.396 52.8184H191.609V53.27H191.353C190.986 53.27 190.71 53.3514 190.522 53.5142C190.343 53.6688 190.254 53.8641 190.254 54.1001C190.254 54.4175 190.388 54.8569 190.657 55.4185L193.379 61.0581L195.881 54.8813C196.02 54.5477 196.089 54.2181 196.089 53.8926C196.089 53.7461 196.06 53.6362 196.003 53.563C195.938 53.4735 195.837 53.4043 195.698 53.3555C195.56 53.2985 195.316 53.27 194.966 53.27V52.8184H198.604V53.27C198.302 53.3026 198.07 53.3677 197.908 53.4653C197.745 53.563 197.566 53.7461 197.371 54.0146C197.297 54.1286 197.159 54.4419 196.956 54.9546L192.402 66.1118C191.963 67.1942 191.385 68.012 190.669 68.5654C189.961 69.1188 189.277 69.3955 188.618 69.3955C188.138 69.3955 187.743 69.2572 187.434 68.9805C187.125 68.7038 186.97 68.3864 186.97 68.0283C186.97 67.6865 187.08 67.4098 187.3 67.1982C187.528 66.9948 187.837 66.8931 188.228 66.8931C188.496 66.8931 188.862 66.9826 189.326 67.1616C189.652 67.2837 189.855 67.3447 189.937 67.3447C190.181 67.3447 190.445 67.2186 190.73 66.9663C191.023 66.714 191.316 66.2257 191.609 65.5015L192.402 63.5605L188.386 55.1255C188.264 54.8732 188.069 54.5599 187.8 54.1855C187.597 53.9007 187.43 53.7095 187.3 53.6118C187.113 53.4816 186.812 53.3677 186.396 53.27V52.8184Z" fill="black"/>
<path d="M221.768 79.7678C222.744 78.7915 222.744 77.2085 221.768 76.2322L205.858 60.3223C204.882 59.346 203.299 59.346 202.322 60.3223C201.346 61.2986 201.346 62.8816 202.322 63.8579L216.464 78L202.322 92.1421C201.346 93.1184 201.346 94.7014 202.322 95.6777C203.299 96.654 204.882 96.654 205.858 95.6777L221.768 79.7678ZM123 80.5L220 80.5V75.5L123 75.5V80.5Z" fill="black"/>
<path d="M121.232 140.232C120.256 141.209 120.256 142.791 121.232 143.768L137.142 159.678C138.118 160.654 139.701 160.654 140.678 159.678C141.654 158.701 141.654 157.118 140.678 156.142L126.536 142L140.678 127.858C141.654 126.882 141.654 125.299 140.678 124.322C139.701 123.346 138.118 123.346 137.142 124.322L121.232 140.232ZM227 139.5L123 139.5L123 144.5L227 144.5L227 139.5Z" fill="black"/>
<path d="M152.958 184H148.539L142.936 176.261C142.521 176.277 142.183 176.285 141.922 176.285C141.817 176.285 141.703 176.285 141.581 176.285C141.458 176.277 141.332 176.269 141.202 176.261V181.07C141.202 182.112 141.316 182.759 141.544 183.011C141.853 183.369 142.317 183.548 142.936 183.548H143.583V184H136.49V183.548H137.113C137.813 183.548 138.313 183.32 138.614 182.865C138.785 182.612 138.871 182.014 138.871 181.07V170.377C138.871 169.335 138.757 168.688 138.529 168.436C138.211 168.078 137.739 167.899 137.113 167.899H136.49V167.447H142.521C144.278 167.447 145.572 167.577 146.402 167.838C147.241 168.09 147.949 168.562 148.526 169.254C149.112 169.938 149.405 170.755 149.405 171.708C149.405 172.725 149.072 173.608 148.404 174.356C147.745 175.105 146.72 175.634 145.328 175.943L148.746 180.692C149.527 181.782 150.199 182.507 150.76 182.865C151.322 183.223 152.054 183.451 152.958 183.548V184ZM141.202 175.492C141.357 175.492 141.491 175.496 141.605 175.504C141.719 175.504 141.812 175.504 141.886 175.504C143.465 175.504 144.653 175.162 145.45 174.479C146.256 173.795 146.659 172.924 146.659 171.866C146.659 170.833 146.333 169.994 145.682 169.352C145.039 168.701 144.185 168.375 143.119 168.375C142.647 168.375 142.008 168.452 141.202 168.607V175.492ZM155.399 177.03C155.391 178.69 155.794 179.992 156.607 180.936C157.421 181.88 158.377 182.352 159.476 182.352C160.208 182.352 160.843 182.153 161.38 181.754C161.926 181.347 162.381 180.655 162.748 179.679L163.126 179.923C162.955 181.038 162.459 182.055 161.637 182.975C160.815 183.886 159.785 184.342 158.548 184.342C157.206 184.342 156.054 183.821 155.094 182.779C154.142 181.729 153.666 180.322 153.666 178.556C153.666 176.643 154.154 175.154 155.13 174.088C156.115 173.014 157.348 172.477 158.829 172.477C160.082 172.477 161.112 172.892 161.917 173.722C162.723 174.544 163.126 175.646 163.126 177.03H155.399ZM155.399 176.322H160.575C160.534 175.606 160.449 175.101 160.318 174.808C160.115 174.352 159.81 173.994 159.403 173.734C159.004 173.473 158.585 173.343 158.146 173.343C157.47 173.343 156.864 173.608 156.327 174.137C155.798 174.658 155.488 175.386 155.399 176.322ZM171.854 172.489V176.297H171.451C171.142 175.101 170.743 174.287 170.255 173.856C169.775 173.425 169.16 173.209 168.412 173.209C167.842 173.209 167.382 173.36 167.032 173.661C166.682 173.962 166.507 174.295 166.507 174.662C166.507 175.117 166.638 175.508 166.898 175.833C167.15 176.167 167.663 176.521 168.436 176.896L170.218 177.762C171.87 178.568 172.696 179.63 172.696 180.948C172.696 181.965 172.31 182.787 171.537 183.414C170.772 184.033 169.913 184.342 168.961 184.342C168.277 184.342 167.496 184.22 166.617 183.976C166.349 183.894 166.129 183.854 165.958 183.854C165.771 183.854 165.624 183.959 165.519 184.171H165.116V180.179H165.519C165.746 181.319 166.182 182.177 166.825 182.755C167.468 183.333 168.188 183.622 168.985 183.622C169.547 183.622 170.003 183.459 170.353 183.133C170.711 182.8 170.89 182.401 170.89 181.937C170.89 181.375 170.69 180.903 170.292 180.521C169.901 180.139 169.116 179.654 167.936 179.068C166.756 178.482 165.982 177.953 165.616 177.481C165.25 177.018 165.067 176.432 165.067 175.724C165.067 174.804 165.38 174.035 166.007 173.417C166.642 172.798 167.459 172.489 168.46 172.489C168.9 172.489 169.433 172.582 170.06 172.77C170.475 172.892 170.751 172.953 170.89 172.953C171.02 172.953 171.122 172.924 171.195 172.867C171.268 172.81 171.354 172.684 171.451 172.489H171.854ZM173.563 173.929L177.005 172.538H177.469V175.15C178.047 174.165 178.625 173.478 179.203 173.087C179.789 172.688 180.403 172.489 181.046 172.489C182.169 172.489 183.105 172.928 183.854 173.807C184.773 174.881 185.233 176.281 185.233 178.006C185.233 179.935 184.68 181.53 183.573 182.792C182.661 183.825 181.514 184.342 180.13 184.342C179.528 184.342 179.007 184.256 178.568 184.085C178.242 183.963 177.876 183.719 177.469 183.353V186.759C177.469 187.524 177.514 188.008 177.604 188.211C177.701 188.423 177.864 188.59 178.092 188.712C178.328 188.834 178.751 188.895 179.361 188.895V189.347H173.502V188.895H173.807C174.255 188.903 174.637 188.818 174.955 188.639C175.109 188.549 175.227 188.403 175.309 188.199C175.398 188.004 175.443 187.499 175.443 186.686V176.114C175.443 175.39 175.41 174.93 175.345 174.735C175.28 174.54 175.174 174.393 175.028 174.295C174.889 174.198 174.698 174.149 174.454 174.149C174.259 174.149 174.011 174.206 173.709 174.32L173.563 173.929ZM177.469 175.87V180.045C177.469 180.948 177.506 181.542 177.579 181.827C177.693 182.299 177.97 182.714 178.409 183.072C178.857 183.43 179.418 183.609 180.094 183.609C180.908 183.609 181.567 183.292 182.071 182.657C182.73 181.827 183.06 180.659 183.06 179.154C183.06 177.445 182.686 176.131 181.937 175.211C181.416 174.576 180.798 174.259 180.082 174.259C179.691 174.259 179.304 174.356 178.922 174.552C178.629 174.698 178.145 175.138 177.469 175.87ZM192.337 172.489C194.03 172.489 195.389 173.132 196.415 174.417C197.285 175.516 197.721 176.778 197.721 178.202C197.721 179.203 197.481 180.216 197 181.241C196.52 182.267 195.857 183.04 195.011 183.561C194.173 184.081 193.237 184.342 192.203 184.342C190.519 184.342 189.18 183.67 188.187 182.328C187.349 181.196 186.93 179.927 186.93 178.519C186.93 177.494 187.182 176.476 187.687 175.467C188.199 174.45 188.871 173.701 189.701 173.221C190.531 172.733 191.41 172.489 192.337 172.489ZM191.959 173.282C191.528 173.282 191.092 173.412 190.653 173.673C190.222 173.925 189.872 174.373 189.603 175.016C189.334 175.659 189.2 176.485 189.2 177.494C189.2 179.121 189.522 180.525 190.165 181.705C190.816 182.885 191.67 183.475 192.728 183.475C193.517 183.475 194.168 183.15 194.681 182.499C195.194 181.847 195.45 180.729 195.45 179.142C195.45 177.156 195.023 175.593 194.168 174.454C193.591 173.673 192.854 173.282 191.959 173.282ZM202.628 174.857C203.938 173.278 205.187 172.489 206.375 172.489C206.986 172.489 207.511 172.643 207.95 172.953C208.39 173.254 208.74 173.754 209 174.454C209.179 174.942 209.269 175.691 209.269 176.7V181.473C209.269 182.181 209.326 182.661 209.439 182.914C209.529 183.117 209.671 183.276 209.867 183.39C210.07 183.504 210.44 183.561 210.978 183.561V184H205.448V183.561H205.68C206.201 183.561 206.563 183.483 206.766 183.329C206.978 183.166 207.124 182.93 207.206 182.621C207.238 182.499 207.254 182.116 207.254 181.473V176.896C207.254 175.878 207.12 175.142 206.852 174.686C206.591 174.222 206.148 173.99 205.521 173.99C204.553 173.99 203.588 174.519 202.628 175.577V181.473C202.628 182.23 202.673 182.698 202.762 182.877C202.876 183.113 203.031 183.288 203.226 183.402C203.43 183.508 203.836 183.561 204.447 183.561V184H198.917V183.561H199.161C199.731 183.561 200.113 183.418 200.309 183.133C200.512 182.84 200.614 182.287 200.614 181.473V177.323C200.614 175.98 200.581 175.162 200.516 174.869C200.459 174.576 200.366 174.377 200.235 174.271C200.113 174.165 199.946 174.112 199.735 174.112C199.507 174.112 199.234 174.173 198.917 174.295L198.734 173.856L202.103 172.489H202.628V174.857ZM219.095 172.489V176.297H218.692C218.383 175.101 217.984 174.287 217.496 173.856C217.016 173.425 216.402 173.209 215.653 173.209C215.083 173.209 214.623 173.36 214.273 173.661C213.924 173.962 213.749 174.295 213.749 174.662C213.749 175.117 213.879 175.508 214.139 175.833C214.391 176.167 214.904 176.521 215.677 176.896L217.459 177.762C219.111 178.568 219.938 179.63 219.938 180.948C219.938 181.965 219.551 182.787 218.778 183.414C218.013 184.033 217.154 184.342 216.202 184.342C215.519 184.342 214.737 184.22 213.858 183.976C213.59 183.894 213.37 183.854 213.199 183.854C213.012 183.854 212.866 183.959 212.76 184.171H212.357V180.179H212.76C212.988 181.319 213.423 182.177 214.066 182.755C214.709 183.333 215.429 183.622 216.227 183.622C216.788 183.622 217.244 183.459 217.594 183.133C217.952 182.8 218.131 182.401 218.131 181.937C218.131 181.375 217.931 180.903 217.533 180.521C217.142 180.139 216.357 179.654 215.177 179.068C213.997 178.482 213.224 177.953 212.857 177.481C212.491 177.018 212.308 176.432 212.308 175.724C212.308 174.804 212.621 174.035 213.248 173.417C213.883 172.798 214.701 172.489 215.702 172.489C216.141 172.489 216.674 172.582 217.301 172.77C217.716 172.892 217.993 172.953 218.131 172.953C218.261 172.953 218.363 172.924 218.436 172.867C218.509 172.81 218.595 172.684 218.692 172.489H219.095ZM223.49 177.03C223.482 178.69 223.884 179.992 224.698 180.936C225.512 181.88 226.468 182.352 227.567 182.352C228.299 182.352 228.934 182.153 229.471 181.754C230.016 181.347 230.472 180.655 230.838 179.679L231.217 179.923C231.046 181.038 230.549 182.055 229.728 182.975C228.906 183.886 227.876 184.342 226.639 184.342C225.296 184.342 224.145 183.821 223.185 182.779C222.232 181.729 221.756 180.322 221.756 178.556C221.756 176.643 222.245 175.154 223.221 174.088C224.206 173.014 225.439 172.477 226.92 172.477C228.173 172.477 229.203 172.892 230.008 173.722C230.814 174.544 231.217 175.646 231.217 177.03H223.49ZM223.49 176.322H228.666C228.625 175.606 228.539 175.101 228.409 174.808C228.206 174.352 227.901 173.994 227.494 173.734C227.095 173.473 226.676 173.343 226.236 173.343C225.561 173.343 224.955 173.608 224.417 174.137C223.889 174.658 223.579 175.386 223.49 176.322Z" fill="black"/>
</svg>
